{
    "asset" : {
        "generator" : "Khronos glTF Blender I/O v1.7.33",
        "version" : "2.0"
    },
    "scene" : 0,
    "scenes" : [
        {
            "name" : "Scene",
            "nodes" : [
                0
            ]
        }
    ],
    "nodes" : [
        {
            "mesh" : 0,
            "name" : "Skolan500Plus43",
            "scale" : [
                0.10000000149011612,
                0.10000000149011612,
                0.10000000149011612
            ]
        }
    ],
    "meshes" : [
        {
            "name" : "Skolan500Plus43",
            "primitives" : [
                {
                    "attributes" : {
                        "POSITION" : 0,
                        "NORMAL" : 1
                    },
                    "indices" : 2
                }
            ]
        }
    ],
    "accessors" : [
        {
            "bufferView" : 0,
            "componentType" : 5126,
            "count" : 685,
            "max" : [
                162.60061645507812,
                45.32551956176758,
                -36.42140579223633
            ],
            "min" : [
                34.39960479736328,
                0,
                -134.79965209960938
            ],
            "type" : "VEC3"
        },
        {
            "bufferView" : 1,
            "componentType" : 5126,
            "count" : 685,
            "type" : "VEC3"
        },
        {
            "bufferView" : 2,
            "componentType" : 5123,
            "count" : 1326,
            "type" : "SCALAR"
        }
    ],
    "bufferViews" : [
        {
            "buffer" : 0,
            "byteLength" : 8220,
            "byteOffset" : 0
        },
        {
            "buffer" : 0,
            "byteLength" : 8220,
            "byteOffset" : 8220
        },
        {
            "buffer" : 0,
            "byteLength" : 2652,
            "byteOffset" : 16440
        }
    ],
    "buffers" : [
        {
            "byteLength" : 19092,
            "uri" : "data:application/octet-stream;base64,"
        }
    ]
}
